<?xml version="1.0" standalone="no"?>
<!DOCTYPE svg PUBLIC "-//W3C//DTD SVG 20010904//EN"
 "http://www.w3.org/TR/2001/REC-SVG-20010904/DTD/svg10.dtd">
<svg version="1.0" xmlns="http://www.w3.org/2000/svg"
 width="475.000000pt" height="526.000000pt" viewBox="0 0 475.000000 526.000000"
 preserveAspectRatio="xMidYMid meet">
<metadata>
Created by potrace 1.16, written by Peter Selinger 2001-2019
</metadata>
<g transform="translate(0.000000,526.000000) scale(0.100000,-0.100000)"
fill="#000000" stroke="none">
<path d="M0 2630 l0 -2630 2375 0 2375 0 0 2630 0 2630 -2375 0 -2375 0 0
-2630z m3180 2330 c13 -11 29 -20 35 -20 36 0 195 -202 195 -247 0 -11 7 -40
15 -63 8 -23 15 -56 15 -72 0 -24 -5 -29 -31 -35 -29 -6 -119 -81 -119 -100 0
-4 -16 -21 -36 -37 -20 -16 -42 -43 -49 -60 -8 -17 -31 -49 -52 -72 -21 -22
-56 -63 -78 -91 -22 -28 -53 -56 -70 -62 -28 -12 -28 -13 -10 -21 11 -5 37
-11 58 -15 41 -7 44 -11 22 -36 -14 -15 -21 -15 -58 -4 -34 10 -43 17 -45 38
-2 14 -10 31 -18 37 -8 7 -14 18 -14 24 0 24 -82 67 -124 67 -78 0 -96 7 -96
40 0 16 6 32 14 35 8 3 27 23 42 45 l27 39 -7 130 c-8 150 -10 160 -37 153
-13 -4 -19 -14 -19 -35 0 -18 -4 -27 -10 -23 -6 4 -8 15 -5 26 4 11 0 26 -10
36 -13 13 -16 26 -10 57 4 23 9 56 12 74 7 42 41 61 78 44 14 -7 34 -12 44
-12 10 0 24 -6 31 -14 13 -16 40 -11 40 8 0 7 -16 26 -35 42 -19 16 -35 34
-35 40 0 7 -7 14 -15 18 -25 9 -17 27 9 20 18 -4 28 1 44 21 17 22 28 26 64
24 24 -1 52 3 63 9 11 6 50 12 86 12 52 0 71 -4 89 -20z m-1562 -96 c12 -4 22
-12 22 -18 0 -19 69 -76 91 -76 25 0 34 22 20 49 -9 17 -8 22 9 31 12 6 29 8
40 5 26 -8 60 -57 60 -87 0 -28 17 -48 40 -48 20 0 52 -34 68 -72 10 -25 8
-29 -30 -57 -23 -17 -48 -31 -55 -31 -8 0 -23 -16 -34 -35 -27 -45 -43 -53
-99 -47 -42 3 -47 7 -75 54 -16 27 -35 55 -42 61 -7 7 -24 46 -39 87 -15 41
-36 86 -46 99 -26 34 -24 78 5 84 36 7 41 7 65 1z m352 -361 c0 -10 -7 -27
-15 -37 -17 -22 -20 -52 -7 -60 5 -3 27 13 50 34 23 22 47 40 55 40 7 0 22 7
33 15 22 17 44 19 44 5 0 -5 -7 -10 -15 -10 -8 0 -15 -6 -15 -13 0 -8 -9 -24
-20 -37 -28 -32 -37 -88 -17 -108 15 -14 17 -13 27 12 5 15 10 33 10 39 1 7
14 27 29 45 25 29 32 32 50 23 27 -15 27 -24 -7 -85 -16 -28 -32 -66 -35 -84
-6 -29 -4 -35 13 -39 26 -7 36 -47 20 -81 l-12 -27 -14 25 c-7 14 -13 33 -14
43 0 26 -14 20 -28 -13 -14 -31 -32 -40 -32 -16 0 8 -15 19 -33 25 -71 24
-136 133 -139 234 -2 75 4 87 43 87 21 0 29 -5 29 -17z m2463 -73 c33 0 17
-17 -23 -24 -30 -5 -40 -11 -40 -25 0 -47 111 -29 145 23 10 14 21 23 26 20
16 -10 10 -54 -8 -61 -10 -4 -26 -17 -36 -30 -11 -13 -36 -33 -58 -43 -21 -11
-39 -24 -39 -29 0 -5 -24 -17 -54 -25 -49 -15 -59 -23 -124 -105 -39 -50 -77
-99 -83 -109 -22 -36 -45 -43 -94 -31 -41 10 -50 9 -98 -14 -28 -13 -77 -34
-107 -47 -110 -44 -141 -64 -155 -97 -10 -24 -23 -34 -54 -43 -22 -6 -64 -24
-93 -40 -116 -64 -120 -65 -203 -65 -51 0 -91 6 -110 15 -29 15 -30 17 -27 81
4 76 -14 124 -53 139 -20 8 -22 13 -15 43 12 55 17 59 69 52 37 -5 62 -1 116
20 43 15 102 28 152 32 79 6 85 5 122 -21 36 -26 43 -27 75 -16 20 6 38 16 41
21 4 5 39 9 78 9 53 0 83 5 112 20 49 25 67 25 90 0 20 -23 35 -12 35 25 0 11
6 32 14 46 7 14 16 37 19 51 4 16 18 30 38 38 25 11 29 17 24 37 -4 16 1 34
15 54 17 23 29 29 58 29 61 0 82 10 82 36 0 24 9 29 75 37 17 3 39 3 50 1 11
-2 28 -4 38 -4z m-1891 -241 c-2 -13 -9 -29 -17 -34 -7 -6 -18 -45 -25 -88
-14 -88 -3 -137 32 -137 24 0 147 61 185 92 14 12 33 2 33 -16 0 -8 -7 -19
-15 -26 -11 -9 -15 -27 -13 -54 3 -38 6 -42 40 -50 29 -7 46 -5 87 12 27 12
61 22 75 22 13 0 32 7 41 16 9 9 18 15 20 13 9 -10 7 -59 -5 -97 -10 -32 -11
-45 -2 -54 17 -17 15 -38 -3 -38 -8 0 -22 -15 -31 -32 -9 -18 -28 -43 -43 -55
-26 -23 -26 -23 -6 -38 29 -23 97 -16 110 11 6 12 17 29 24 38 8 9 12 37 11
73 -2 58 6 103 19 103 4 0 20 -13 35 -29 28 -29 49 -111 29 -111 -10 0 -53
-41 -110 -105 -14 -16 -33 -25 -51 -25 -65 0 -141 -145 -179 -340 -8 -41 -18
-95 -23 -120 -12 -61 -11 -422 1 -485 22 -116 22 -122 4 -153 -16 -26 -16 -35
-5 -73 6 -24 16 -71 22 -104 23 -144 53 -255 85 -319 25 -49 32 -71 24 -79
-14 -14 -14 -44 0 -53 7 -4 20 4 30 17 10 13 20 22 22 19 18 -20 47 -90 47
-115 0 -34 -32 -110 -58 -138 -19 -21 -76 -47 -103 -47 -10 0 -25 -10 -33 -22
-9 -12 -35 -31 -58 -43 -33 -15 -56 -40 -100 -105 -32 -47 -70 -110 -84 -140
-14 -30 -31 -65 -37 -78 -9 -19 -6 -27 18 -52 15 -16 40 -32 55 -35 25 -6 129
-111 170 -173 11 -18 29 -25 74 -31 32 -4 62 -14 67 -22 27 -48 33 -51 64 -35
17 9 37 16 45 16 8 0 29 9 45 20 17 11 39 20 50 20 11 0 34 9 50 20 39 26 75
26 75 1 0 -15 -8 -21 -32 -23 -37 -4 -48 -23 -19 -33 27 -8 27 -41 1 -57 -12
-8 -20 -24 -20 -39 0 -15 -6 -29 -14 -32 -8 -3 -17 -19 -21 -36 -5 -24 -12
-31 -29 -31 -39 0 -58 32 -51 82 7 44 7 44 -34 62 l-40 19 -44 -45 c-82 -85
-71 -82 -346 -90 -135 -4 -266 -11 -291 -17 -25 -5 -101 -13 -170 -16 -69 -4
-176 -13 -238 -21 -63 -7 -202 -17 -310 -20 -191 -7 -252 -17 -252 -44 0 -5
-15 -25 -32 -45 -33 -35 -33 -35 -119 -35 -74 0 -95 4 -152 30 -36 16 -68 34
-72 40 -3 5 -19 10 -34 10 -16 0 -36 9 -47 21 -10 12 -28 25 -39 29 -19 7 -18
9 7 18 14 6 29 15 32 20 5 8 -58 116 -91 157 -8 10 -45 67 -71 110 -6 11 -26
49 -43 84 -36 74 -33 105 8 116 16 3 46 27 69 52 44 50 37 49 179 43 57 -2 79
1 110 18 22 11 65 29 95 40 151 52 174 58 340 93 30 6 78 20 106 30 28 11 74
22 102 26 29 3 57 12 63 19 17 21 62 17 82 -6 24 -28 48 -13 67 42 13 35 22
45 50 54 42 14 46 25 25 70 -11 24 -14 47 -10 78 5 33 2 55 -14 91 -26 59 -26
81 -1 95 26 14 25 39 -3 82 -26 38 -67 150 -67 183 0 11 -7 48 -16 80 -8 33
-19 107 -24 165 -7 86 -6 109 6 125 74 101 76 106 70 178 -7 82 7 121 59 164
24 21 36 37 33 51 -2 13 10 32 32 53 19 19 46 51 60 72 18 28 40 44 80 60 46
19 55 26 55 47 0 23 -4 25 -38 23 -23 -2 -51 -13 -72 -29 -33 -25 -35 -25 -35
-6 0 12 5 24 10 27 6 4 17 22 25 41 8 19 57 77 110 129 110 108 114 125 31
125 -29 0 -56 3 -59 6 -12 12 14 46 43 55 32 12 44 33 31 57 -5 9 -5 26 0 37
4 11 8 47 8 80 1 53 5 64 33 94 38 40 87 111 88 126 0 6 9 28 20 50 11 22 20
47 20 55 0 8 9 29 20 45 11 17 20 40 20 52 0 12 8 30 19 40 10 10 22 28 26 41
9 30 31 23 27 -9z m743 -3419 c3 -5 9 -32 12 -59 5 -47 5 -50 -16 -44 -16 4
-21 1 -21 -15 0 -11 7 -22 15 -26 8 -3 15 -14 15 -24 0 -10 5 -23 10 -28 8 -8
-36 -14 -142 -21 -109 -7 -162 -15 -186 -27 -31 -16 -33 -16 -62 5 -28 21 -35
22 -169 15 -77 -3 -163 -11 -193 -17 -65 -13 -413 -22 -442 -12 -33 12 67 21
239 22 99 1 169 6 205 16 34 9 126 17 240 21 213 7 325 30 340 70 5 12 14 25
19 29 6 3 11 22 11 41 0 26 4 34 18 34 9 1 28 7 42 15 29 17 56 19 65 5z
m-2724 -48 c4 -4 3 -17 -2 -29 -7 -20 -16 -23 -57 -23 -54 0 -85 -21 -64 -42
24 -24 11 -28 -26 -9 -36 18 -62 55 -62 86 0 9 18 16 58 20 31 3 64 8 72 10
20 5 73 -4 81 -13z m18 -188 c2 -10 8 -25 13 -31 15 -18 63 -16 79 3 11 13 14
13 21 0 9 -16 1 -46 -13 -46 -15 0 -10 -40 6 -46 31 -12 13 -24 -34 -24 -37 0
-56 6 -76 23 -28 24 -42 79 -31 122 7 29 29 29 35 -1z"/>
<path d="M1850 1099 c-14 -6 -43 -8 -66 -4 -32 4 -47 1 -75 -18 -32 -22 -65
-38 -184 -92 -98 -44 -161 -63 -250 -75 -49 -6 -97 -15 -105 -19 -9 -5 -16
-25 -18 -48 -3 -38 -1 -41 58 -84 33 -24 63 -52 66 -61 11 -35 41 -41 168 -34
67 4 162 13 211 21 50 8 162 19 250 25 265 18 330 40 273 93 -43 40 -48 167
-9 192 14 8 14 72 1 80 -5 3 -37 0 -70 -7 -56 -11 -63 -10 -112 11 -64 28
-104 34 -138 20z"/>
</g>
</svg>
